# xmcd CD database file
#
# Track frame offsets:
#	150
#	11964
#	27078
#	42196
#	57580
#	78824
#	94727
#	112395
#	128964
#	142837
#
# Disc length: 2110 seconds
#
# Revision: 0
# Processed by: cddbd v1.5.1PL0 Copyright (c) Steve Scherf et al.
# Submitted via: NeoAudio 9.9.9
#
DISCID=84083c0a
DTITLE=Tom Lanza - White Horse
DYEAR=1997
DGENRE=Country
TTITLE0=White Horse
TTITLE1=Burning Bridges
TTITLE2=God And You And Me
TTITLE3=Ready To Go
TTITLE4=When He Died
TTITLE5=I Feel Revival
TTITLE6=The Blood Has Been Applied
TTITLE7=I Never Walked Out On You
TTITLE8=Hallelujah, Amen
TTITLE9=Two Step Your Way (Through The Pearly Gates)
EXTD=YEAR: 1997
EXTT0=
EXTT1=
EXTT2=
EXTT3=
EXTT4=
EXTT5=
EXTT6=
EXTT7=
EXTT8=
EXTT9=
PLAYORDER=
